# xmcd
#
# Track frame offsets: 
#        150
#        19178
#        41177
#        58932
#        79661
#        120962
#        147134
#        189945
#        220473
#
# Disc length: 3835 seconds
#
# Revision: 1
# Processed by: cddbd v1.5.2PL0 Copyright (c) Steve Scherf et al.
# Submitted via: ExactAudioCopyFreeDBPlugin 1.0
#
DISCID=7b0ef909
DTITLE=Steve Ray Vaughan and Double Trouble - The Best of Slow Blues
DYEAR=2004
DGENRE=Blues
TTITLE0=Leave My Girl Alone
TTITLE1=The Things That I Used to Do
TTITLE2=Chitlins con Carne
TTITLE3=The Sky Is Crying
TTITLE4=Tin Pan Alley (AKA Roughest Place in Town)
TTITLE5=May I Have a Talk With You
TTITLE6=Texas Flood
TTITLE7=Little Wing
TTITLE8=Blues at Sunrise (Live '83)
EXTD=
EXTT0=
EXTT1=
EXTT2=
EXTT3=
EXTT4=
EXTT5=
EXTT6=
EXTT7=
EXTT8=
PLAYORDER=
